<svg version="1.1" viewBox="0.0 0.0 502.0 167.0" fill="none" stroke="none" stroke-linecap="square" stroke-miterlimit="10" width="502" height="167" xmlns:xlink="http://www.w3.org/1999/xlink" xmlns="http://www.w3.org/2000/svg"><path fill="#ffffff" fill-opacity="0.0" d="M0 0L502.0 0L502.0 167.0L0 167.0L0 0Z" fill-rule="nonzero"/><path stroke="#333333" stroke-width="1.0" stroke-linecap="butt" d="M44.5 128.5L493.5 128.5" fill-rule="nonzero"/><path stroke="#ffffff" stroke-width="1.0" stroke-linecap="butt" d="M44.5 101.5L493.5 101.5" fill-rule="nonzero"/><path stroke="#ffffff" stroke-width="1.0" stroke-linecap="butt" d="M44.5 73.5L493.5 73.5" fill-rule="nonzero"/><path stroke="#ffffff" stroke-width="1.0" stroke-linecap="butt" d="M44.5 45.5L493.5 45.5" fill-rule="nonzero"/><path stroke="#ffffff" stroke-width="1.0" stroke-linecap="butt" d="M44.5 18.5L493.5 18.5" fill-rule="nonzero"/><clipPath id="id_0"><path d="M44.35 18.35L493.65 18.35L493.65 128.65L44.35 128.65L44.35 18.35Z" clip-rule="nonzero"/></clipPath><path stroke="#ffffff" stroke-width="4.0" stroke-linecap="butt" clip-path="url(#id_0)" d="M76.442856 101.075L140.62857 95.56L204.81429 106.59L269.0 87.2875L333.1857 73.5L397.37143 87.2875L461.55713 23.865" fill-rule="nonzero"/><path fill="#ffffff" clip-path="url(#id_0)" d="M82.442856 101.075C82.442856 104.38871 79.75657 107.075 76.442856 107.075C73.12915 107.075 70.442856 104.38871 70.442856 101.075C70.442856 97.76129 73.12915 95.075 76.442856 95.075C79.75657 95.075 82.442856 97.76129 82.442856 101.075Z" fill-rule="nonzero"/><path fill="#ffffff" clip-path="url(#id_0)" d="M146.62857 95.56C146.62857 98.87371 143.94228 101.56 140.62857 101.56C137.31487 101.56 134.62857 98.87371 134.62857 95.56C134.62857 92.24629 137.31487 89.56 140.62857 89.56C143.94228 89.56 146.62857 92.24629 146.62857 95.56Z" fill-rule="nonzero"/><path fill="#ffffff" clip-path="url(#id_0)" d="M210.81429 106.59C210.81429 109.90371 208.12799 112.59 204.81429 112.59C201.50058 112.59 198.81429 109.90371 198.81429 106.59C198.81429 103.27629 201.50058 100.59 204.81429 100.59C208.12799 100.59 210.81429 103.27629 210.81429 106.59Z" fill-rule="nonzero"/><path fill="#ffffff" clip-path="url(#id_0)" d="M275.0 87.2875C275.0 90.60121 272.31372 93.2875 269.0 93.2875C265.68628 93.2875 263.0 90.60121 263.0 87.2875C263.0 83.97379 265.68628 81.2875 269.0 81.2875C272.31372 81.2875 275.0 83.97379 275.0 87.2875Z" fill-rule="nonzero"/><path fill="#ffffff" clip-path="url(#id_0)" d="M339.1857 73.5C339.1857 76.813705 336.49942 79.5 333.1857 79.5C329.872 79.5 327.1857 76.813705 327.1857 73.5C327.1857 70.186295 329.872 67.5 333.1857 67.5C336.49942 67.5 339.1857 70.186295 339.1857 73.5Z" fill-rule="nonzero"/><path fill="#ffffff" clip-path="url(#id_0)" d="M403.37143 87.2875C403.37143 90.60121 400.68515 93.2875 397.37143 93.2875C394.0577 93.2875 391.37143 90.60121 391.37143 87.2875C391.37143 83.97379 394.0577 81.2875 397.37143 81.2875C400.68515 81.2875 403.37143 83.97379 403.37143 87.2875Z" fill-rule="nonzero"/><path fill="#ffffff" clip-path="url(#id_0)" d="M467.55713 23.865C467.55713 27.178709 464.87085 29.865 461.55713 29.865C458.24344 29.865 455.55713 27.178709 455.55713 23.865C455.55713 20.551292 458.24344 17.865 461.55713 17.865C464.87085 17.865 467.55713 20.551292 467.55713 23.865Z" fill-rule="nonzero"/><path fill="#ffffff" d="M34.69375 128.69687Q34.69375 130.47812 34.19375 132.025Q33.896873 132.97812 33.38125 133.5875Q32.88125 134.18124 32.240623 134.54062Q31.6 134.9 30.834375 134.9Q29.975 134.9 29.271875 134.4625Q28.584375 134.00937 28.053125 133.19687Q27.6625 132.60312 27.38125 131.60312Q27.00625 130.25937 27.00625 128.8375Q27.00625 126.88437 27.553125 125.25937Q27.990625 123.91562 28.896875 123.19687Q29.81875 122.47812 30.834375 122.47812Q31.88125 122.47812 32.771873 123.19687Q33.678123 123.899994 34.1 125.10312Q34.69375 126.743744 34.69375 128.69687ZM31.990625 128.66562Q31.990625 125.54062 31.94375 125.024994Q31.865625 123.806244 31.521875 123.368744Q31.303125 123.087494 30.81875 123.087494Q30.44375 123.087494 30.225 123.306244Q29.896875 123.60312 29.771875 124.38437Q29.6625 125.16562 29.6625 129.82187Q29.6625 132.35312 29.834375 133.2125Q29.975 133.8375 30.209375 134.05624Q30.459375 134.25937 30.865625 134.25937Q31.303125 134.25937 31.521875 133.97812Q31.896875 133.47812 31.94375 132.44687L31.990625 128.66562Z" fill-rule="nonzero"/><path fill="#ffffff" d="M23.209375 94.90312L23.209375 104.65312Q23.209375 105.7625 23.303125 106.05937Q23.4125 106.35625 23.709375 106.55937Q24.021875 106.74687 24.69375 106.74687L24.975 106.74687L24.975 107.075L18.69375 107.075L18.69375 106.74687L19.00625 106.74687Q19.771875 106.74687 20.1 106.575Q20.428125 106.40312 20.5375 106.09062Q20.6625 105.77812 20.6625 104.65312L20.6625 98.48125Q20.6625 97.65312 20.56875 97.45Q20.490625 97.24687 20.271875 97.10625Q20.06875 96.95 19.7875 96.95Q19.334375 96.95 18.69375 97.23125L18.5375 96.91875L22.928125 94.90312L23.209375 94.90312ZM34.69375 101.12187Q34.69375 102.90312 34.19375 104.45Q33.896873 105.40312 33.38125 106.0125Q32.88125 106.60625 32.240623 106.96562Q31.6 107.325 30.834375 107.325Q29.975 107.325 29.271875 106.8875Q28.584375 106.43437 28.053125 105.62187Q27.6625 105.02812 27.38125 104.02812Q27.00625 102.68437 27.00625 101.2625Q27.00625 99.30937 27.553125 97.68437Q27.990625 96.34062 28.896875 95.62187Q29.81875 94.90312 30.834375 94.90312Q31.88125 94.90312 32.771873 95.62187Q33.678123 96.325 34.1 97.52812Q34.69375 99.16875 34.69375 101.12187ZM31.990625 101.09062Q31.990625 97.96562 31.94375 97.45Q31.865625 96.23125 31.521875 95.79375Q31.303125 95.5125 30.81875 95.5125Q30.44375 95.5125 30.225 95.73125Q29.896875 96.02812 29.771875 96.80937Q29.6625 97.59062 29.6625 102.24687Q29.6625 104.77812 29.834375 105.6375Q29.975 106.2625 30.209375 106.48125Q30.459375 106.68437 30.865625 106.68437Q31.303125 106.68437 31.521875 106.40312Q31.896875 105.90312 31.94375 104.87187L31.990625 101.09062Z" fill-rule="nonzero"/><path fill="#ffffff" d="M24.803125 79.5L17.7875 79.5L17.7875 79.3125Q21.021875 75.46875 21.709375 74.140625Q22.396875 72.8125 22.396875 71.546875Q22.396875 70.625 21.81875 70.015625Q21.25625 69.40625 20.428125 69.40625Q19.06875 69.40625 18.31875 70.75L18.00625 70.640625Q18.475 68.953125 19.44375 68.140625Q20.4125 67.328125 21.678125 67.328125Q22.584375 67.328125 23.31875 67.75Q24.06875 68.171875 24.490625 68.90625Q24.9125 69.640625 24.9125 70.28125Q24.9125 71.453125 24.271875 72.65625Q23.38125 74.28125 20.396875 77.203125L22.959375 77.203125Q23.9125 77.203125 24.19375 77.125Q24.490625 77.03125 24.6625 76.84375Q24.85 76.65625 25.1625 76.046875L25.475 76.046875L24.803125 79.5ZM34.69375 73.546875Q34.69375 75.328125 34.19375 76.875Q33.896873 77.828125 33.38125 78.4375Q32.88125 79.03125 32.240623 79.390625Q31.6 79.75 30.834375 79.75Q29.975 79.75 29.271875 79.3125Q28.584375 78.859375 28.053125 78.046875Q27.6625 77.453125 27.38125 76.453125Q27.00625 75.109375 27.00625 73.6875Q27.00625 71.734375 27.553125 70.109375Q27.990625 68.765625 28.896875 68.046875Q29.81875 67.328125 30.834375 67.328125Q31.88125 67.328125 32.771873 68.046875Q33.678123 68.75 34.1 69.953125Q34.69375 71.59375 34.69375 73.546875ZM31.990625 73.515625Q31.990625 70.390625 31.94375 69.875Q31.865625 68.65625 31.521875 68.21875Q31.303125 67.9375 30.81875 67.9375Q30.44375 67.9375 30.225 68.15625Q29.896875 68.453125 29.771875 69.234375Q29.6625 70.015625 29.6625 74.671875Q29.6625 77.203125 29.834375 78.0625Q29.975 78.6875 30.209375 78.90625Q30.459375 79.109375 30.865625 79.109375Q31.303125 79.109375 31.521875 78.828125Q31.896875 78.328125 31.94375 77.296875L31.990625 73.515625Z" fill-rule="nonzero"/><path fill="#ffffff" d="M20.00625 45.940624L20.00625 45.64375Q21.021875 45.346874 21.396875 45.096874Q21.7875 44.846874 22.06875 44.33125Q22.35 43.815624 22.35 43.3Q22.35 42.565624 21.81875 42.05Q21.2875 41.51875 20.490625 41.51875Q19.271875 41.51875 18.4125 42.815624L18.084375 42.70625Q18.709375 41.2375 19.69375 40.503124Q20.69375 39.753124 21.896875 39.753124Q23.146875 39.753124 23.94375 40.51875Q24.75625 41.26875 24.75625 42.284374Q24.75625 42.940624 24.38125 43.55Q24.00625 44.159374 23.209375 44.628124Q24.225 45.128124 24.771875 45.8625Q25.31875 46.596874 25.31875 47.70625Q25.31875 49.565624 23.959375 50.878124Q22.615625 52.175 20.35 52.175Q18.834375 52.175 18.146875 51.675Q17.646875 51.33125 17.646875 50.76875Q17.646875 50.3625 17.928125 50.08125Q18.225 49.8 18.6 49.8Q18.88125 49.8 19.146875 49.925Q19.2875 49.9875 20.13125 50.690624Q20.990625 51.39375 21.740625 51.39375Q22.396875 51.39375 22.865625 50.878124Q23.334375 50.3625 23.334375 49.565624Q23.334375 48.3625 22.490625 47.346874Q21.646875 46.33125 20.00625 45.940624ZM34.69375 45.971874Q34.69375 47.753124 34.19375 49.3Q33.896873 50.253124 33.38125 50.8625Q32.88125 51.45625 32.240623 51.815624Q31.6 52.175 30.834375 52.175Q29.975 52.175 29.271875 51.7375Q28.584375 51.284374 28.053125 50.471874Q27.6625 49.878124 27.38125 48.878124Q27.00625 47.534374 27.00625 46.1125Q27.00625 44.159374 27.553125 42.534374Q27.990625 41.190624 28.896875 40.471874Q29.81875 39.753124 30.834375 39.753124Q31.88125 39.753124 32.771873 40.471874Q33.678123 41.175 34.1 42.378124Q34.69375 44.01875 34.69375 45.971874ZM31.990625 45.940624Q31.990625 42.815624 31.94375 42.3Q31.865625 41.08125 31.521875 40.64375Q31.303125 40.3625 30.81875 40.3625Q30.44375 40.3625 30.225 40.58125Q29.896875 40.878124 29.771875 41.659374Q29.6625 42.440624 29.6625 47.096874Q29.6625 49.628124 29.834375 50.4875Q29.975 51.1125 30.209375 51.33125Q30.459375 51.534374 30.865625 51.534374Q31.303125 51.534374 31.521875 51.253124Q31.896875 50.753124 31.94375 49.721874L31.990625 45.940624Z" fill-rule="nonzero"/><path fill="#ffffff" d="M17.803125 19.865625L23.459375 12.178125L24.5375 12.178125L24.5375 19.865625L25.615625 19.865625L25.615625 21.678125L24.5375 21.678125L24.5375 24.35L22.115625 24.35L22.115625 21.678125L17.803125 21.678125L17.803125 19.865625ZM18.646875 19.865625L22.115625 19.865625L22.115625 15.1625L18.646875 19.865625ZM34.69375 18.396875Q34.69375 20.178125 34.19375 21.725Q33.896873 22.678125 33.38125 23.2875Q32.88125 23.88125 32.240623 24.240625Q31.6 24.6 30.834375 24.6Q29.975 24.6 29.271875 24.1625Q28.584375 23.709375 28.053125 22.896875Q27.6625 22.303125 27.38125 21.303125Q27.00625 19.959375 27.00625 18.5375Q27.00625 16.584375 27.553125 14.959375Q27.990625 13.615625 28.896875 12.896875Q29.81875 12.178125 30.834375 12.178125Q31.88125 12.178125 32.771873 12.896875Q33.678123 13.6 34.1 14.803125Q34.69375 16.44375 34.69375 18.396875ZM31.990625 18.365625Q31.990625 15.240625 31.94375 14.725Q31.865625 13.50625 31.521875 13.06875Q31.303125 12.7875 30.81875 12.7875Q30.44375 12.7875 30.225 13.00625Q29.896875 13.303125 29.771875 14.084375Q29.6625 14.865625 29.6625 19.521875Q29.6625 22.053125 29.834375 22.9125Q29.975 23.5375 30.209375 23.75625Q30.459375 23.959375 30.865625 23.959375Q31.303125 23.959375 31.521875 23.678125Q31.896875 23.178125 31.94375 22.146875L31.990625 18.365625Z" fill-rule="nonzero"/><path fill="#ffffff" d="M70.224106 154.65L70.224106 141.75937L74.11473 141.75937L76.442856 150.55624L78.755356 141.75937L82.661606 141.75937L82.661606 154.65L80.23973 154.65L80.23973 144.50937L77.692856 154.65L75.17723 154.65L72.630356 144.50937L72.630356 154.65L70.224106 154.65Z" fill-rule="nonzero"/><path fill="#ffffff" d="M139.3317 154.65L139.3317 143.94687L135.5192 143.94687L135.5192 141.75937L145.75357 141.75937L145.75357 143.94687L141.94107 143.94687L141.94107 154.65L139.3317 154.65Z" fill-rule="nonzero"/><path fill="#ffffff" d="M199.45491 154.65L196.37679 141.75937L199.03304 141.75937L200.98616 150.61874L203.32991 141.75937L206.42366 141.75937L208.68929 150.75937L210.67366 141.75937L213.28304 141.75937L210.15804 154.65L207.39241 154.65L204.82991 145.00937L202.26741 154.65L199.45491 154.65Z" fill-rule="nonzero"/><path fill="#ffffff" d="M267.70312 154.65L267.70312 143.94687L263.89062 143.94687L263.89062 141.75937L274.125 141.75937L274.125 143.94687L270.3125 143.94687L270.3125 154.65L267.70312 154.65Z" fill-rule="nonzero"/><path fill="#ffffff" d="M329.01382 154.65L329.01382 141.75937L337.84195 141.75937L337.84195 143.94687L331.60757 143.94687L331.60757 146.99374L336.9982 146.99374L336.9982 149.18124L331.60757 149.18124L331.60757 154.65L329.01382 154.65Z" fill-rule="nonzero"/><path fill="#ffffff" d="M392.02768 150.4625L394.55893 150.2125Q394.77768 151.47812 395.4808 152.0875Q396.18393 152.68124 397.37143 152.68124Q398.62143 152.68124 399.26205 152.15Q399.90268 151.61874 399.90268 150.9Q399.90268 150.44687 399.62143 150.13437Q399.3558 149.80624 398.69955 149.57187Q398.2308 149.41562 396.6058 149.00937Q394.51205 148.49374 393.6683 147.72812Q392.4808 146.66562 392.4808 145.13437Q392.4808 144.15 393.0433 143.30624Q393.6058 142.44687 394.65268 141.99374Q395.69955 141.54062 397.18393 141.54062Q399.62143 141.54062 400.84018 142.60312Q402.07455 143.66562 402.13705 145.44687L399.52768 145.55624Q399.3558 144.57187 398.80893 144.13437Q398.26205 143.69687 397.1683 143.69687Q396.02768 143.69687 395.38705 144.16562Q394.9808 144.4625 394.9808 144.9625Q394.9808 145.41562 395.3558 145.74374Q395.8558 146.16562 397.74643 146.61874Q399.65268 147.05624 400.55893 147.54062Q401.46518 148.00937 401.9808 148.85312Q402.49643 149.68124 402.49643 150.9Q402.49643 152.00937 401.87143 152.97812Q401.26205 153.93124 400.13705 154.41562Q399.01205 154.88437 397.34018 154.88437Q394.90268 154.88437 393.59018 153.75937Q392.27768 152.61874 392.02768 150.4625Z" fill-rule="nonzero"/><path fill="#ffffff" d="M456.21338 150.4625L458.74463 150.2125Q458.96338 151.47812 459.6665 152.0875Q460.36963 152.68124 461.55713 152.68124Q462.80713 152.68124 463.44775 152.15Q464.08838 151.61874 464.08838 150.9Q464.08838 150.44687 463.80713 150.13437Q463.5415 149.80624 462.88525 149.57187Q462.4165 149.41562 460.7915 149.00937Q458.69775 148.49374 457.854 147.72812Q456.6665 146.66562 456.6665 145.13437Q456.6665 144.15 457.229 143.30624Q457.7915 142.44687 458.83838 141.99374Q459.88525 141.54062 461.36963 141.54062Q463.80713 141.54062 465.02588 142.60312Q466.26025 143.66562 466.32275 145.44687L463.71338 145.55624Q463.5415 144.57187 462.99463 144.13437Q462.44775 143.69687 461.354 143.69687Q460.21338 143.69687 459.57275 144.16562Q459.1665 144.4625 459.1665 144.9625Q459.1665 145.41562 459.5415 145.74374Q460.0415 146.16562 461.93213 146.61874Q463.83838 147.05624 464.74463 147.54062Q465.65088 148.00937 466.1665 148.85312Q466.68213 149.68124 466.68213 150.9Q466.68213 152.00937 466.05713 152.97812Q465.44775 153.93124 464.32275 154.41562Q463.19775 154.88437 461.52588 154.88437Q459.08838 154.88437 457.77588 153.75937Q456.46338 152.61874 456.21338 150.4625Z" fill-rule="nonzero"/></svg>