<svg version="1.1" viewBox="0.0 0.0 600.0 230.0" fill="none" stroke="none" stroke-linecap="square" stroke-miterlimit="10" width="600" height="230" xmlns:xlink="http://www.w3.org/1999/xlink" xmlns="http://www.w3.org/2000/svg"><path fill="#ffffff" fill-opacity="0.0" d="M0 0L600.0 0L600.0 230.0L0 230.0L0 0Z" fill-rule="nonzero"/><path stroke="#333333" stroke-width="1.0" stroke-linecap="butt" d="M38.5 188.5L588.5 188.5" fill-rule="nonzero"/><path stroke="#ffffff" stroke-width="1.0" stroke-linecap="butt" d="M38.5 146.5L588.5 146.5" fill-rule="nonzero"/><path stroke="#ffffff" stroke-width="1.0" stroke-linecap="butt" d="M38.5 103.5L588.5 103.5" fill-rule="nonzero"/><path stroke="#ffffff" stroke-width="1.0" stroke-linecap="butt" d="M38.5 61.5L588.5 61.5" fill-rule="nonzero"/><path stroke="#ffffff" stroke-width="1.0" stroke-linecap="butt" d="M38.5 18.5L588.5 18.5" fill-rule="nonzero"/><clipPath id="id_0"><path d="M38.5 18.5L588.5 18.5L588.5 188.5L38.5 188.5L38.5 18.5Z" clip-rule="nonzero"/></clipPath><path stroke="#000000" stroke-width="0.0" stroke-linecap="butt" stroke-opacity="0.0" clip-path="url(#id_0)" d="M105.0 189.0L62.0 189.0L62.0 101.0C62.0 99.89543 62.89543 99.0 64.0 99.0L103.0 99.0C104.10457 99.0 105.0 99.89543 105.0 101.0Z" fill-rule="nonzero"/><path fill="#ffffff" clip-path="url(#id_0)" d="M105.0 189.0L62.0 189.0L62.0 101.0C62.0 99.89543 62.89543 99.0 64.0 99.0L103.0 99.0C104.10457 99.0 105.0 99.89543 105.0 101.0Z" fill-rule="nonzero"/><path stroke="#000000" stroke-width="0.0" stroke-linecap="butt" stroke-opacity="0.0" clip-path="url(#id_0)" d="M171.0 189.0L128.0 189.0L128.0 110.0C128.0 108.89543 128.89543 108.0 130.0 108.0L169.0 108.0C170.10457 108.0 171.0 108.89543 171.0 110.0Z" fill-rule="nonzero"/><path fill="#ffffff" clip-path="url(#id_0)" d="M171.0 189.0L128.0 189.0L128.0 110.0C128.0 108.89543 128.89543 108.0 130.0 108.0L169.0 108.0C170.10457 108.0 171.0 108.89543 171.0 110.0Z" fill-rule="nonzero"/><path stroke="#000000" stroke-width="0.0" stroke-linecap="butt" stroke-opacity="0.0" clip-path="url(#id_0)" d="M237.0 189.0L194.0 189.0L194.0 144.0C194.0 142.89543 194.89543 142.0 196.0 142.0L235.0 142.0C236.10457 142.0 237.0 142.89543 237.0 144.0Z" fill-rule="nonzero"/><path fill="#ffffff" clip-path="url(#id_0)" d="M237.0 189.0L194.0 189.0L194.0 144.0C194.0 142.89543 194.89543 142.0 196.0 142.0L235.0 142.0C236.10457 142.0 237.0 142.89543 237.0 144.0Z" fill-rule="nonzero"/><path stroke="#000000" stroke-width="0.0" stroke-linecap="butt" stroke-opacity="0.0" clip-path="url(#id_0)" d="M303.0 189.0L260.0 189.0L260.0 38.0C260.0 36.89543 260.89542 36.0 262.0 36.0L301.0 36.0C302.10458 36.0 303.0 36.89543 303.0 38.0Z" fill-rule="nonzero"/><path fill="#ffffff" clip-path="url(#id_0)" d="M303.0 189.0L260.0 189.0L260.0 38.0C260.0 36.89543 260.89542 36.0 262.0 36.0L301.0 36.0C302.10458 36.0 303.0 36.89543 303.0 38.0Z" fill-rule="nonzero"/><path stroke="#000000" stroke-width="0.0" stroke-linecap="butt" stroke-opacity="0.0" clip-path="url(#id_0)" d="M368.0 189.0L325.0 189.0L325.0 89.0C325.0 87.89543 325.89542 87.0 327.0 87.0L366.0 87.0C367.10458 87.0 368.0 87.89543 368.0 89.0Z" fill-rule="nonzero"/><path fill="#ffffff" clip-path="url(#id_0)" d="M368.0 189.0L325.0 189.0L325.0 89.0C325.0 87.89543 325.89542 87.0 327.0 87.0L366.0 87.0C367.10458 87.0 368.0 87.89543 368.0 89.0Z" fill-rule="nonzero"/><path stroke="#000000" stroke-width="0.0" stroke-linecap="butt" stroke-opacity="0.0" clip-path="url(#id_0)" d="M434.0 189.0L391.0 189.0L391.0 116.0C391.0 114.89543 391.89542 114.0 393.0 114.0L432.0 114.0C433.10458 114.0 434.0 114.89543 434.0 116.0Z" fill-rule="nonzero"/><path fill="#ffffff" clip-path="url(#id_0)" d="M434.0 189.0L391.0 189.0L391.0 116.0C391.0 114.89543 391.89542 114.0 393.0 114.0L432.0 114.0C433.10458 114.0 434.0 114.89543 434.0 116.0Z" fill-rule="nonzero"/><path stroke="#000000" stroke-width="0.0" stroke-linecap="butt" stroke-opacity="0.0" clip-path="url(#id_0)" d="M500.0 189.0L457.0 189.0L457.0 137.0C457.0 135.89543 457.89542 135.0 459.0 135.0L498.0 135.0C499.10458 135.0 500.0 135.89543 500.0 137.0Z" fill-rule="nonzero"/><path fill="#ffffff" clip-path="url(#id_0)" d="M500.0 189.0L457.0 189.0L457.0 137.0C457.0 135.89543 457.89542 135.0 459.0 135.0L498.0 135.0C499.10458 135.0 500.0 135.89543 500.0 137.0Z" fill-rule="nonzero"/><path stroke="#000000" stroke-width="0.0" stroke-linecap="butt" stroke-opacity="0.0" clip-path="url(#id_0)" d="M566.0 189.0L523.0 189.0L523.0 42.0C523.0 40.89543 523.89545 40.0 525.0 40.0L564.0 40.0C565.10455 40.0 566.0 40.89543 566.0 42.0Z" fill-rule="nonzero"/><path fill="#ffffff" clip-path="url(#id_0)" d="M566.0 189.0L523.0 189.0L523.0 42.0C523.0 40.89543 523.89545 40.0 525.0 40.0L564.0 40.0C565.10455 40.0 566.0 40.89543 566.0 42.0Z" fill-rule="nonzero"/><path fill="#ffffff" d="M28.796875 183.875Q30.046875 183.875 30.75 184.76562Q31.578125 185.8125 31.578125 188.26562Q31.578125 190.70312 30.734375 191.76562Q30.046875 192.64062 28.796875 192.64062Q27.546875 192.64062 26.765625 191.6875Q26.0 190.71875 26.0 188.25Q26.0 185.8125 26.84375 184.75Q27.546875 183.875 28.796875 183.875ZM28.796875 185.23438Q28.5 185.23438 28.265625 185.4375Q28.03125 185.625 27.890625 186.10938Q27.734375 186.75 27.734375 188.26562Q27.734375 189.78125 27.875 190.34375Q28.03125 190.90625 28.265625 191.09375Q28.5 191.28125 28.796875 191.28125Q29.09375 191.28125 29.328125 191.09375Q29.5625 190.90625 29.6875 190.40625Q29.859375 189.78125 29.859375 188.26562Q29.859375 186.75 29.703125 186.1875Q29.5625 185.625 29.328125 185.4375Q29.09375 185.23438 28.796875 185.23438Z" fill-rule="nonzero"/><path fill="#ffffff" d="M17.578125 148.46875L17.578125 150.0L11.796875 150.0Q11.890625 149.125 12.359375 148.35938Q12.828125 147.57812 14.21875 146.29688Q15.328125 145.26562 15.578125 144.89062Q15.921875 144.375 15.921875 143.875Q15.921875 143.32812 15.625 143.03125Q15.328125 142.73438 14.8125 142.73438Q14.296875 142.73438 13.984375 143.04688Q13.6875 143.35938 13.640625 144.07812L12.0 143.92188Q12.140625 142.5625 12.90625 141.96875Q13.6875 141.375 14.84375 141.375Q16.125 141.375 16.84375 142.0625Q17.578125 142.75 17.578125 143.76562Q17.578125 144.34375 17.359375 144.875Q17.15625 145.39062 16.703125 145.96875Q16.40625 146.34375 15.625 147.0625Q14.84375 147.78125 14.640625 148.01562Q14.4375 148.25 14.296875 148.46875L17.578125 148.46875ZM21.796875 141.375Q23.046875 141.375 23.75 142.26562Q24.578125 143.3125 24.578125 145.76562Q24.578125 148.20312 23.734375 149.26562Q23.046875 150.14062 21.796875 150.14062Q20.546875 150.14062 19.765625 149.1875Q19.0 148.21875 19.0 145.75Q19.0 143.3125 19.84375 142.25Q20.546875 141.375 21.796875 141.375ZM21.796875 142.73438Q21.5 142.73438 21.265625 142.9375Q21.03125 143.125 20.890625 143.60938Q20.734375 144.25 20.734375 145.76562Q20.734375 147.28125 20.875 147.84375Q21.03125 148.40625 21.265625 148.59375Q21.5 148.78125 21.796875 148.78125Q22.09375 148.78125 22.328125 148.59375Q22.5625 148.40625 22.6875 147.90625Q22.859375 147.28125 22.859375 145.76562Q22.859375 144.25 22.703125 143.6875Q22.5625 143.125 22.328125 142.9375Q22.09375 142.73438 21.796875 142.73438ZM28.796875 141.375Q30.046875 141.375 30.75 142.26562Q31.578125 143.3125 31.578125 145.76562Q31.578125 148.20312 30.734375 149.26562Q30.046875 150.14062 28.796875 150.14062Q27.546875 150.14062 26.765625 149.1875Q26.0 148.21875 26.0 145.75Q26.0 143.3125 26.84375 142.25Q27.546875 141.375 28.796875 141.375ZM28.796875 142.73438Q28.5 142.73438 28.265625 142.9375Q28.03125 143.125 27.890625 143.60938Q27.734375 144.25 27.734375 145.76562Q27.734375 147.28125 27.875 147.84375Q28.03125 148.40625 28.265625 148.59375Q28.5 148.78125 28.796875 148.78125Q29.09375 148.78125 29.328125 148.59375Q29.5625 148.40625 29.6875 147.90625Q29.859375 147.28125 29.859375 145.76562Q29.859375 144.25 29.703125 143.6875Q29.5625 143.125 29.328125 142.9375Q29.09375 142.73438 28.796875 142.73438Z" fill-rule="nonzero"/><path fill="#ffffff" d="M15.234375 107.5L15.234375 105.765625L11.71875 105.765625L11.71875 104.328125L15.453125 98.875L16.828125 98.875L16.828125 104.328125L17.90625 104.328125L17.90625 105.765625L16.828125 105.765625L16.828125 107.5L15.234375 107.5ZM15.234375 104.328125L15.234375 101.390625L13.265625 104.328125L15.234375 104.328125ZM21.796875 98.875Q23.046875 98.875 23.75 99.765625Q24.578125 100.8125 24.578125 103.265625Q24.578125 105.703125 23.734375 106.765625Q23.046875 107.640625 21.796875 107.640625Q20.546875 107.640625 19.765625 106.6875Q19.0 105.71875 19.0 103.25Q19.0 100.8125 19.84375 99.75Q20.546875 98.875 21.796875 98.875ZM21.796875 100.234375Q21.5 100.234375 21.265625 100.4375Q21.03125 100.625 20.890625 101.109375Q20.734375 101.75 20.734375 103.265625Q20.734375 104.78125 20.875 105.34375Q21.03125 105.90625 21.265625 106.09375Q21.5 106.28125 21.796875 106.28125Q22.09375 106.28125 22.328125 106.09375Q22.5625 105.90625 22.6875 105.40625Q22.859375 104.78125 22.859375 103.265625Q22.859375 101.75 22.703125 101.1875Q22.5625 100.625 22.328125 100.4375Q22.09375 100.234375 21.796875 100.234375ZM28.796875 98.875Q30.046875 98.875 30.75 99.765625Q31.578125 100.8125 31.578125 103.265625Q31.578125 105.703125 30.734375 106.765625Q30.046875 107.640625 28.796875 107.640625Q27.546875 107.640625 26.765625 106.6875Q26.0 105.71875 26.0 103.25Q26.0 100.8125 26.84375 99.75Q27.546875 98.875 28.796875 98.875ZM28.796875 100.234375Q28.5 100.234375 28.265625 100.4375Q28.03125 100.625 27.890625 101.109375Q27.734375 101.75 27.734375 103.265625Q27.734375 104.78125 27.875 105.34375Q28.03125 105.90625 28.265625 106.09375Q28.5 106.28125 28.796875 106.28125Q29.09375 106.28125 29.328125 106.09375Q29.5625 105.90625 29.6875 105.40625Q29.859375 104.78125 29.859375 103.265625Q29.859375 101.75 29.703125 101.1875Q29.5625 100.625 29.328125 100.4375Q29.09375 100.234375 28.796875 100.234375Z" fill-rule="nonzero"/><path fill="#ffffff" d="M17.59375 58.515625L16.0 58.6875Q15.9375 58.203125 15.6875 57.96875Q15.4375 57.734375 15.046875 57.734375Q14.53125 57.734375 14.171875 58.203125Q13.8125 58.671875 13.71875 60.140625Q14.328125 59.421875 15.25 59.421875Q16.28125 59.421875 17.015625 60.203125Q17.75 60.984375 17.75 62.234375Q17.75 63.546875 16.96875 64.34375Q16.203125 65.140625 14.984375 65.140625Q13.6875 65.140625 12.84375 64.140625Q12.015625 63.125 12.015625 60.828125Q12.015625 58.453125 12.875 57.421875Q13.75 56.375 15.15625 56.375Q16.125 56.375 16.765625 56.921875Q17.40625 57.46875 17.59375 58.515625ZM13.859375 62.109375Q13.859375 62.90625 14.21875 63.34375Q14.59375 63.78125 15.0625 63.78125Q15.53125 63.78125 15.828125 63.421875Q16.140625 63.0625 16.140625 62.25Q16.140625 61.40625 15.8125 61.03125Q15.484375 60.640625 14.984375 60.640625Q14.515625 60.640625 14.1875 61.015625Q13.859375 61.375 13.859375 62.109375ZM21.796875 56.375Q23.046875 56.375 23.75 57.265625Q24.578125 58.3125 24.578125 60.765625Q24.578125 63.203125 23.734375 64.265625Q23.046875 65.140625 21.796875 65.140625Q20.546875 65.140625 19.765625 64.1875Q19.0 63.21875 19.0 60.75Q19.0 58.3125 19.84375 57.25Q20.546875 56.375 21.796875 56.375ZM21.796875 57.734375Q21.5 57.734375 21.265625 57.9375Q21.03125 58.125 20.890625 58.609375Q20.734375 59.25 20.734375 60.765625Q20.734375 62.28125 20.875 62.84375Q21.03125 63.40625 21.265625 63.59375Q21.5 63.78125 21.796875 63.78125Q22.09375 63.78125 22.328125 63.59375Q22.5625 63.40625 22.6875 62.90625Q22.859375 62.28125 22.859375 60.765625Q22.859375 59.25 22.703125 58.6875Q22.5625 58.125 22.328125 57.9375Q22.09375 57.734375 21.796875 57.734375ZM28.796875 56.375Q30.046875 56.375 30.75 57.265625Q31.578125 58.3125 31.578125 60.765625Q31.578125 63.203125 30.734375 64.265625Q30.046875 65.140625 28.796875 65.140625Q27.546875 65.140625 26.765625 64.1875Q26.0 63.21875 26.0 60.75Q26.0 58.3125 26.84375 57.25Q27.546875 56.375 28.796875 56.375ZM28.796875 57.734375Q28.5 57.734375 28.265625 57.9375Q28.03125 58.125 27.890625 58.609375Q27.734375 59.25 27.734375 60.765625Q27.734375 62.28125 27.875 62.84375Q28.03125 63.40625 28.265625 63.59375Q28.5 63.78125 28.796875 63.78125Q29.09375 63.78125 29.328125 63.59375Q29.5625 63.40625 29.6875 62.90625Q29.859375 62.28125 29.859375 60.765625Q29.859375 59.25 29.703125 58.6875Q29.5625 58.125 29.328125 57.9375Q29.09375 57.734375 28.796875 57.734375Z" fill-rule="nonzero"/><path fill="#ffffff" d="M13.421875 17.859375Q12.78125 17.59375 12.484375 17.125Q12.203125 16.65625 12.203125 16.09375Q12.203125 15.125 12.875 14.5Q13.546875 13.875 14.78125 13.875Q16.0 13.875 16.671875 14.5Q17.359375 15.125 17.359375 16.09375Q17.359375 16.6875 17.046875 17.15625Q16.734375 17.625 16.171875 17.859375Q16.890625 18.15625 17.265625 18.703125Q17.640625 19.25 17.640625 19.96875Q17.640625 21.15625 16.875 21.90625Q16.125 22.65625 14.859375 22.65625Q13.6875 22.65625 12.90625 22.03125Q11.984375 21.3125 11.984375 20.046875Q11.984375 19.34375 12.328125 18.765625Q12.671875 18.1875 13.421875 17.859375ZM13.765625 16.203125Q13.765625 16.703125 14.03125 16.984375Q14.3125 17.25 14.78125 17.25Q15.25 17.25 15.53125 16.96875Q15.8125 16.6875 15.8125 16.203125Q15.8125 15.734375 15.53125 15.46875Q15.25 15.1875 14.796875 15.1875Q14.328125 15.1875 14.046875 15.46875Q13.765625 15.75 13.765625 16.203125ZM13.609375 19.890625Q13.609375 20.5625 13.953125 20.953125Q14.3125 21.328125 14.828125 21.328125Q15.34375 21.328125 15.671875 20.96875Q16.0 20.59375 16.0 19.90625Q16.0 19.296875 15.65625 18.9375Q15.328125 18.5625 14.8125 18.5625Q14.203125 18.5625 13.90625 18.984375Q13.609375 19.40625 13.609375 19.890625ZM21.796875 13.875Q23.046875 13.875 23.75 14.765625Q24.578125 15.8125 24.578125 18.265625Q24.578125 20.703125 23.734375 21.765625Q23.046875 22.640625 21.796875 22.640625Q20.546875 22.640625 19.765625 21.6875Q19.0 20.71875 19.0 18.25Q19.0 15.8125 19.84375 14.75Q20.546875 13.875 21.796875 13.875ZM21.796875 15.234375Q21.5 15.234375 21.265625 15.4375Q21.03125 15.625 20.890625 16.109375Q20.734375 16.75 20.734375 18.265625Q20.734375 19.78125 20.875 20.34375Q21.03125 20.90625 21.265625 21.09375Q21.5 21.28125 21.796875 21.28125Q22.09375 21.28125 22.328125 21.09375Q22.5625 20.90625 22.6875 20.40625Q22.859375 19.78125 22.859375 18.265625Q22.859375 16.75 22.703125 16.1875Q22.5625 15.625 22.328125 15.4375Q22.09375 15.234375 21.796875 15.234375ZM28.796875 13.875Q30.046875 13.875 30.75 14.765625Q31.578125 15.8125 31.578125 18.265625Q31.578125 20.703125 30.734375 21.765625Q30.046875 22.640625 28.796875 22.640625Q27.546875 22.640625 26.765625 21.6875Q26.0 20.71875 26.0 18.25Q26.0 15.8125 26.84375 14.75Q27.546875 13.875 28.796875 13.875ZM28.796875 15.234375Q28.5 15.234375 28.265625 15.4375Q28.03125 15.625 27.890625 16.109375Q27.734375 16.75 27.734375 18.265625Q27.734375 19.78125 27.875 20.34375Q28.03125 20.90625 28.265625 21.09375Q28.5 21.28125 28.796875 21.28125Q29.09375 21.28125 29.328125 21.09375Q29.5625 20.90625 29.6875 20.40625Q29.859375 19.78125 29.859375 18.265625Q29.859375 16.75 29.703125 16.1875Q29.5625 15.625 29.328125 15.4375Q29.09375 15.234375 28.796875 15.234375Z" fill-rule="nonzero"/><path fill="#ffffff" d="M78.94545 214.5L78.94545 201.60938L87.63295 201.60938L87.63295 203.14062L80.648575 203.14062L80.648575 207.125L86.69545 207.125L86.69545 208.64062L80.648575 208.64062L80.648575 214.5L78.94545 214.5Z" fill-rule="nonzero"/><path fill="#ffffff" d="M142.6731 214.5L142.6731 201.60938L145.2356 201.60938L148.28247 210.73438Q148.70435 212.01562 148.89185 212.64062Q149.1106 211.9375 149.57935 210.57812L152.6731 201.60938L154.95435 201.60938L154.95435 214.5L153.31372 214.5L153.31372 203.71875L149.57935 214.5L148.03247 214.5L144.31372 203.53125L144.31372 214.5L142.6731 214.5Z" fill-rule="nonzero"/><path fill="#ffffff" d="M208.66635 214.5L213.61948 201.60938L215.46323 201.60938L220.72885 214.5L218.79135 214.5L217.29135 210.59375L211.90073 210.59375L210.47885 214.5L208.66635 214.5ZM212.3851 209.20312L216.7601 209.20312L215.41635 205.64062Q214.79135 204.01562 214.49448 202.96875Q214.2601 204.20312 213.80698 205.42188L212.3851 209.20312Z" fill-rule="nonzero"/><path fill="#ffffff" d="M276.58148 210.84375L278.12836 210.625Q278.19086 212.10938 278.67523 212.65625Q279.17523 213.20312 280.0346 213.20312Q280.67523 213.20312 281.14398 212.90625Q281.61273 212.60938 281.7846 212.10938Q281.95648 211.59375 281.95648 210.48438L281.95648 201.60938L283.67523 201.60938L283.67523 210.39062Q283.67523 212.01562 283.2846 212.90625Q282.89398 213.78125 282.0346 214.25Q281.19086 214.71875 280.05023 214.71875Q278.3471 214.71875 277.44086 213.75Q276.55023 212.76562 276.58148 210.84375Z" fill-rule="nonzero"/><path fill="#ffffff" d="M341.24664 210.35938L342.85602 210.21875Q342.9654 211.1875 343.37164 211.8125Q343.79352 212.42188 344.66852 212.8125Q345.55914 213.1875 346.6529 213.1875Q347.63727 213.1875 348.37164 212.90625Q349.12164 212.60938 349.48102 212.10938Q349.85602 211.59375 349.85602 211.0Q349.85602 210.39062 349.49664 209.9375Q349.1529 209.48438 348.3404 209.1875Q347.82477 208.98438 346.04352 208.5625Q344.2779 208.125 343.55914 207.75Q342.63727 207.26562 342.18414 206.54688Q341.73102 205.82812 341.73102 204.95312Q341.73102 203.96875 342.2779 203.125Q342.8404 202.28125 343.9029 201.84375Q344.9654 201.39062 346.2779 201.39062Q347.69977 201.39062 348.79352 201.85938Q349.88727 202.3125 350.48102 203.21875Q351.07477 204.10938 351.10602 205.25L349.48102 205.375Q349.3404 204.14062 348.57477 203.51562Q347.82477 202.89062 346.3404 202.89062Q344.79352 202.89062 344.07477 203.46875Q343.37164 204.03125 343.37164 204.82812Q343.37164 205.53125 343.88727 205.96875Q344.37164 206.42188 346.44977 206.89062Q348.5279 207.35938 349.30914 207.71875Q350.43414 208.23438 350.9654 209.03125Q351.49664 209.82812 351.49664 210.85938Q351.49664 211.89062 350.9029 212.79688Q350.32477 213.70312 349.2154 214.21875Q348.12164 214.71875 346.73102 214.71875Q344.98102 214.71875 343.79352 214.21875Q342.62164 213.70312 341.94977 212.6875Q341.2779 211.65625 341.24664 210.35938Z" fill-rule="nonzero"/><path fill="#ffffff" d="M406.1774 208.21875Q406.1774 205.01562 407.89615 203.20312Q409.6149 201.39062 412.34927 201.39062Q414.13052 201.39062 415.5524 202.25Q416.9899 203.09375 417.7399 204.625Q418.4899 206.14062 418.4899 208.07812Q418.4899 210.03125 417.69302 211.57812Q416.91177 213.125 415.45865 213.92188Q414.00552 214.71875 412.33365 214.71875Q410.52115 214.71875 409.08365 213.84375Q407.64615 212.96875 406.91177 211.45312Q406.1774 209.92188 406.1774 208.21875ZM407.9274 208.25Q407.9274 210.57812 409.1774 211.92188Q410.44302 213.26562 412.31802 213.26562Q414.25552 213.26562 415.4899 211.90625Q416.7399 210.54688 416.7399 208.0625Q416.7399 206.5 416.20865 205.32812Q415.6774 204.14062 414.64615 203.5Q413.63052 202.85938 412.34927 202.85938Q410.53677 202.85938 409.22427 204.10938Q407.9274 205.34375 407.9274 208.25Z" fill-rule="nonzero"/><path fill="#ffffff" d="M473.04565 214.5L473.04565 201.60938L474.79565 201.60938L481.56128 211.73438L481.56128 201.60938L483.18628 201.60938L483.18628 214.5L481.4519 214.5L474.67065 204.375L474.67065 214.5L473.04565 214.5Z" fill-rule="nonzero"/><path fill="#ffffff" d="M538.92957 214.5L538.92957 201.60938L543.36707 201.60938Q544.86707 201.60938 545.66394 201.79688Q546.7733 202.04688 547.55457 202.71875Q548.5702 203.57812 549.0702 204.92188Q549.5858 206.26562 549.5858 207.98438Q549.5858 209.45312 549.24207 210.59375Q548.8983 211.71875 548.35144 212.46875Q547.8202 213.20312 547.17957 213.64062Q546.55457 214.0625 545.6483 214.28125Q544.74207 214.5 543.5702 214.5L538.92957 214.5ZM540.6327 212.98438L543.3827 212.98438Q544.66394 212.98438 545.3827 212.75Q546.10144 212.5 546.53894 212.07812Q547.1483 211.46875 547.47644 210.45312Q547.8202 209.42188 547.8202 207.95312Q547.8202 205.9375 547.1483 204.85938Q546.49207 203.76562 545.53894 203.40625Q544.86707 203.14062 543.3358 203.14062L540.6327 203.14062L540.6327 212.98438Z" fill-rule="nonzero"/></svg>