<svg version="1.1" viewBox="0.0 0.0 600.0 227.0" fill="none" stroke="none" stroke-linecap="square" stroke-miterlimit="10" width="600" height="227" xmlns:xlink="http://www.w3.org/1999/xlink" xmlns="http://www.w3.org/2000/svg"><path fill="#ffffff" fill-opacity="0.0" d="M0 0L600.0 0L600.0 227.0L0 227.0L0 0Z" fill-rule="nonzero"/><path stroke="#333333" stroke-width="1.0" stroke-linecap="butt" d="M52.5 11.5L52.5 185.5" fill-rule="nonzero"/><path stroke="#ffffff" stroke-width="1.0" stroke-linecap="butt" d="M186.5 11.5L186.5 185.5" fill-rule="nonzero"/><path stroke="#ffffff" stroke-width="1.0" stroke-linecap="butt" d="M320.5 11.5L320.5 185.5" fill-rule="nonzero"/><path stroke="#ffffff" stroke-width="1.0" stroke-linecap="butt" d="M454.5 11.5L454.5 185.5" fill-rule="nonzero"/><path stroke="#ffffff" stroke-width="1.0" stroke-linecap="butt" d="M588.5 11.5L588.5 185.5" fill-rule="nonzero"/><clipPath id="id_0"><path d="M52.35 11.35L588.65 11.35L588.65 185.65L52.35 185.65L52.35 11.35Z" clip-rule="nonzero"/></clipPath><path stroke="#000000" stroke-width="0.0" stroke-linecap="butt" stroke-opacity="0.0" clip-path="url(#id_0)" d="M52.0 32.0L52.0 18.0L117.0 18.0C118.10457 18.0 119.0 18.89543 119.0 20.0L119.0 30.0C119.0 31.10457 118.10457 32.0 117.0 32.0Z" fill-rule="nonzero"/><path fill="#ffffff" clip-path="url(#id_0)" d="M52.0 32.0L52.0 18.0L117.0 18.0C118.10457 18.0 119.0 18.89543 119.0 20.0L119.0 30.0C119.0 31.10457 118.10457 32.0 117.0 32.0Z" fill-rule="nonzero"/><path stroke="#000000" stroke-width="0.0" stroke-linecap="butt" stroke-opacity="0.0" clip-path="url(#id_0)" d="M52.0 53.0L52.0 39.0L513.0 39.0C514.10455 39.0 515.0 39.89543 515.0 41.0L515.0 51.0C515.0 52.10457 514.10455 53.0 513.0 53.0Z" fill-rule="nonzero"/><path fill="#ffffff" clip-path="url(#id_0)" d="M52.0 53.0L52.0 39.0L513.0 39.0C514.10455 39.0 515.0 39.89543 515.0 41.0L515.0 51.0C515.0 52.10457 514.10455 53.0 513.0 53.0Z" fill-rule="nonzero"/><path stroke="#000000" stroke-width="0.0" stroke-linecap="butt" stroke-opacity="0.0" clip-path="url(#id_0)" d="M52.0 74.0L52.0 60.0L265.0 60.0C266.10458 60.0 267.0 60.89543 267.0 62.0L267.0 72.0C267.0 73.10457 266.10458 74.0 265.0 74.0Z" fill-rule="nonzero"/><path fill="#ffffff" clip-path="url(#id_0)" d="M52.0 74.0L52.0 60.0L265.0 60.0C266.10458 60.0 267.0 60.89543 267.0 62.0L267.0 72.0C267.0 73.10457 266.10458 74.0 265.0 74.0Z" fill-rule="nonzero"/><path stroke="#000000" stroke-width="0.0" stroke-linecap="butt" stroke-opacity="0.0" clip-path="url(#id_0)" d="M52.0 95.0L52.0 81.0L151.0 81.0C152.10457 81.0 153.0 81.89543 153.0 83.0L153.0 93.0C153.0 94.10457 152.10457 95.0 151.0 95.0Z" fill-rule="nonzero"/><path fill="#ffffff" clip-path="url(#id_0)" d="M52.0 95.0L52.0 81.0L151.0 81.0C152.10457 81.0 153.0 81.89543 153.0 83.0L153.0 93.0C153.0 94.10457 152.10457 95.0 151.0 95.0Z" fill-rule="nonzero"/><path stroke="#000000" stroke-width="0.0" stroke-linecap="butt" stroke-opacity="0.0" clip-path="url(#id_0)" d="M52.0 116.0L52.0 102.0L117.0 102.0C118.10457 102.0 119.0 102.89543 119.0 104.0L119.0 114.0C119.0 115.10457 118.10457 116.0 117.0 116.0Z" fill-rule="nonzero"/><path fill="#ffffff" clip-path="url(#id_0)" d="M52.0 116.0L52.0 102.0L117.0 102.0C118.10457 102.0 119.0 102.89543 119.0 104.0L119.0 114.0C119.0 115.10457 118.10457 116.0 117.0 116.0Z" fill-rule="nonzero"/><path stroke="#000000" stroke-width="0.0" stroke-linecap="butt" stroke-opacity="0.0" clip-path="url(#id_0)" d="M52.0 137.0L52.0 123.0L332.0 123.0C333.10458 123.0 334.0 123.89543 334.0 125.0L334.0 135.0C334.0 136.10457 333.10458 137.0 332.0 137.0Z" fill-rule="nonzero"/><path fill="#ffffff" clip-path="url(#id_0)" d="M52.0 137.0L52.0 123.0L332.0 123.0C333.10458 123.0 334.0 123.89543 334.0 125.0L334.0 135.0C334.0 136.10457 333.10458 137.0 332.0 137.0Z" fill-rule="nonzero"/><path stroke="#000000" stroke-width="0.0" stroke-linecap="butt" stroke-opacity="0.0" clip-path="url(#id_0)" d="M52.0 158.0L52.0 144.0L305.0 144.0C306.10458 144.0 307.0 144.89543 307.0 146.0L307.0 156.0C307.0 157.10457 306.10458 158.0 305.0 158.0Z" fill-rule="nonzero"/><path fill="#ffffff" clip-path="url(#id_0)" d="M52.0 158.0L52.0 144.0L305.0 144.0C306.10458 144.0 307.0 144.89543 307.0 146.0L307.0 156.0C307.0 157.10457 306.10458 158.0 305.0 158.0Z" fill-rule="nonzero"/><path stroke="#000000" stroke-width="0.0" stroke-linecap="butt" stroke-opacity="0.0" clip-path="url(#id_0)" d="M52.0 179.0L52.0 165.0L198.0 165.0C199.10457 165.0 200.0 165.89543 200.0 167.0L200.0 177.0C200.0 178.10457 199.10457 179.0 198.0 179.0Z" fill-rule="nonzero"/><path fill="#ffffff" clip-path="url(#id_0)" d="M52.0 179.0L52.0 165.0L198.0 165.0C199.10457 165.0 200.0 165.89543 200.0 167.0L200.0 177.0C200.0 178.10457 199.10457 179.0 198.0 179.0Z" fill-rule="nonzero"/><path fill="#ffffff" d="M18.428125 31.94012L15.959375 31.94012L15.959375 22.62762Q14.615625 23.893246 12.771875 24.50262L12.771875 22.268246Q13.740625 21.94012 14.865625 21.06512Q16.00625 20.174496 16.428125 19.00262L18.428125 19.00262L18.428125 31.94012ZM30.459375 29.643246L30.459375 31.94012L21.803125 31.94012Q21.94375 30.643246 22.646875 29.486996Q23.35 28.31512 25.4125 26.37762Q27.084375 24.830746 27.475 24.268246Q27.975 23.518246 27.975 22.768246Q27.975 21.94012 27.521875 21.50262Q27.084375 21.049496 26.303125 21.049496Q25.5375 21.049496 25.06875 21.518246Q24.615625 21.986996 24.553125 23.06512L22.084375 22.81512Q22.303125 20.78387 23.459375 19.893246Q24.63125 19.00262 26.365625 19.00262Q28.271875 19.00262 29.365625 20.03387Q30.459375 21.06512 30.459375 22.580746Q30.459375 23.455746 30.146875 24.25262Q29.834375 25.03387 29.1625 25.893246Q28.709375 26.47137 27.5375 27.549496Q26.365625 28.611996 26.053125 28.97137Q25.740625 29.31512 25.553125 29.643246L30.459375 29.643246ZM32.6625 31.94012L32.6625 19.049496L36.834373 19.049496Q39.209373 19.049496 39.928123 19.25262Q41.0375 19.53387 41.7875 20.518246Q42.5375 21.486996 42.5375 23.018246Q42.5375 24.205746 42.1 25.018246Q41.6625 25.81512 40.990623 26.28387Q40.334373 26.75262 39.6625 26.893246Q38.725 27.080746 36.959373 27.080746L35.25625 27.080746L35.25625 31.94012L32.6625 31.94012ZM35.25625 21.236996L35.25625 24.893246L36.678123 24.893246Q38.225 24.893246 38.740623 24.69012Q39.25625 24.486996 39.553123 24.06512Q39.85 23.62762 39.85 23.049496Q39.85 22.34637 39.428123 21.893246Q39.021873 21.44012 38.396873 21.31512Q37.928123 21.236996 36.521873 21.236996L35.25625 21.236996Z" fill-rule="nonzero"/><path fill="#ffffff" d="M22.021875 70.26675L24.4125 69.9855Q24.5375 70.89175 25.0375 71.37612Q25.5375 71.8605 26.240625 71.8605Q27.00625 71.8605 27.521875 71.28237Q28.053125 70.70425 28.053125 69.71987Q28.053125 68.78237 27.553125 68.2355Q27.053125 67.68862 26.334375 67.68862Q25.865625 67.68862 25.19375 67.87612L25.475 65.8605Q26.475 65.89175 26.990625 65.43862Q27.521875 64.96987 27.521875 64.20425Q27.521875 63.547997 27.13125 63.172997Q26.75625 62.78237 26.115625 62.78237Q25.475 62.78237 25.021875 63.21987Q24.584375 63.65737 24.490625 64.50112L22.209375 64.1105Q22.44375 62.954247 22.928125 62.25112Q23.4125 61.547997 24.25625 61.15737Q25.115625 60.75112 26.178125 60.75112Q28.00625 60.75112 29.1 61.90737Q30.00625 62.860497 30.00625 64.048Q30.00625 65.75112 28.146875 66.76675Q29.25625 67.00112 29.9125 67.82925Q30.584375 68.65737 30.584375 69.81362Q30.584375 71.51675 29.35 72.71987Q28.115625 73.90737 26.25625 73.90737Q24.521875 73.90737 23.365625 72.90737Q22.209375 71.89175 22.021875 70.26675ZM32.6625 73.68862L32.6625 60.797997L36.834373 60.797997Q39.209373 60.797997 39.928123 61.00112Q41.0375 61.28237 41.7875 62.266747Q42.5375 63.235497 42.5375 64.76675Q42.5375 65.95425 42.1 66.76675Q41.6625 67.56362 40.990623 68.03237Q40.334373 68.50112 39.6625 68.64175Q38.725 68.82925 36.959373 68.82925L35.25625 68.82925L35.25625 73.68862L32.6625 73.68862ZM35.25625 62.985497L35.25625 66.64175L36.678123 66.64175Q38.225 66.64175 38.740623 66.43862Q39.25625 66.2355 39.553123 65.81362Q39.85 65.37612 39.85 64.798Q39.85 64.09487 39.428123 63.641747Q39.021873 63.18862 38.396873 63.06362Q37.928123 62.985497 36.521873 62.985497L35.25625 62.985497Z" fill-rule="nonzero"/><path fill="#ffffff" d="M18.428125 115.437126L15.959375 115.437126L15.959375 106.124626Q14.615625 107.39025 12.771875 107.999626L12.771875 105.76525Q13.740625 105.437126 14.865625 104.562126Q16.00625 103.6715 16.428125 102.499626L18.428125 102.499626L18.428125 115.437126ZM30.459375 113.14025L30.459375 115.437126L21.803125 115.437126Q21.94375 114.14025 22.646875 112.984Q23.35 111.812126 25.4125 109.874626Q27.084375 108.32775 27.475 107.76525Q27.975 107.01525 27.975 106.26525Q27.975 105.437126 27.521875 104.999626Q27.084375 104.5465 26.303125 104.5465Q25.5375 104.5465 25.06875 105.01525Q24.615625 105.484 24.553125 106.562126L22.084375 106.312126Q22.303125 104.280876 23.459375 103.39025Q24.63125 102.499626 26.365625 102.499626Q28.271875 102.499626 29.365625 103.530876Q30.459375 104.562126 30.459375 106.07775Q30.459375 106.95275 30.146875 107.749626Q29.834375 108.530876 29.1625 109.39025Q28.709375 109.968376 27.5375 111.0465Q26.365625 112.109 26.053125 112.468376Q25.740625 112.812126 25.553125 113.14025L30.459375 113.14025ZM32.6625 115.437126L32.6625 102.5465L36.834373 102.5465Q39.209373 102.5465 39.928123 102.749626Q41.0375 103.030876 41.7875 104.01525Q42.5375 104.984 42.5375 106.51525Q42.5375 107.70275 42.1 108.51525Q41.6625 109.312126 40.990623 109.780876Q40.334373 110.249626 39.6625 110.39025Q38.725 110.57775 36.959373 110.57775L35.25625 110.57775L35.25625 115.437126L32.6625 115.437126ZM35.25625 104.734L35.25625 108.39025L36.678123 108.39025Q38.225 108.39025 38.740623 108.187126Q39.25625 107.984 39.553123 107.562126Q39.85 107.124626 39.85 106.5465Q39.85 105.843376 39.428123 105.39025Q39.021873 104.937126 38.396873 104.812126Q37.928123 104.734 36.521873 104.734L35.25625 104.734Z" fill-rule="nonzero"/><path fill="#ffffff" d="M29.475 147.45125L27.084375 147.71687Q27.00625 146.9825 26.63125 146.63875Q26.271875 146.27937 25.678125 146.27937Q24.896875 146.27937 24.35 146.9825Q23.81875 147.68562 23.678125 149.90437Q24.6 148.81062 25.959375 148.81062Q27.50625 148.81062 28.615625 149.99812Q29.725 151.17 29.725 153.02937Q29.725 155.01375 28.553125 156.21687Q27.396875 157.40437 25.584375 157.40437Q23.63125 157.40437 22.365625 155.88875Q21.115625 154.37312 21.115625 150.92Q21.115625 147.37312 22.428125 145.81062Q23.740625 144.24812 25.81875 144.24812Q27.2875 144.24812 28.25625 145.07625Q29.225 145.88875 29.475 147.45125ZM23.88125 152.84187Q23.88125 154.045 24.428125 154.70125Q24.990625 155.3575 25.709375 155.3575Q26.38125 155.3575 26.834375 154.82625Q27.303125 154.27937 27.303125 153.06062Q27.303125 151.81062 26.803125 151.2325Q26.31875 150.63875 25.584375 150.63875Q24.865625 150.63875 24.365625 151.20125Q23.88125 151.74812 23.88125 152.84187ZM43.271873 157.18562L40.44375 157.18562L39.31875 154.26375L34.178123 154.26375L33.115623 157.18562L30.35 157.18562L35.365623 144.295L38.115623 144.295L43.271873 157.18562ZM38.490623 152.09187L36.709373 147.31062L34.975 152.09187L38.490623 152.09187Z" fill-rule="nonzero"/><path fill="#ffffff" d="M52.2875 198.7125Q54.1625 198.7125 55.209373 200.04062Q56.475 201.63437 56.475 205.29062Q56.475 208.94687 55.209373 210.55624Q54.1625 211.86874 52.2875 211.86874Q50.4125 211.86874 49.25625 210.43124Q48.1 208.97812 48.1 205.275Q48.1 201.63437 49.365623 200.025Q50.4125 198.7125 52.2875 198.7125ZM52.2875 200.75937Q51.834373 200.75937 51.475 201.05624Q51.13125 201.3375 50.94375 202.07187Q50.69375 203.025 50.69375 205.29062Q50.69375 207.55624 50.9125 208.41562Q51.146873 209.25937 51.490623 209.54062Q51.834373 209.82187 52.2875 209.82187Q52.740623 209.82187 53.084373 209.54062Q53.44375 209.24374 53.63125 208.50937Q53.896873 207.55624 53.896873 205.29062Q53.896873 203.025 53.6625 202.18124Q53.428123 201.3375 53.084373 201.05624Q52.740623 200.75937 52.2875 200.75937Z" fill-rule="nonzero"/><path fill="#ffffff" d="M180.53438 209.35312L180.53438 211.65L171.87813 211.65Q172.01875 210.35312 172.72188 209.19687Q173.425 208.025 175.4875 206.0875Q177.15938 204.54062 177.55 203.97812Q178.05 203.22812 178.05 202.47812Q178.05 201.65 177.59688 201.2125Q177.15938 200.75937 176.37813 200.75937Q175.6125 200.75937 175.14375 201.22812Q174.69063 201.69687 174.62813 202.775L172.15938 202.525Q172.37813 200.49374 173.53438 199.60312Q174.70625 198.7125 176.44063 198.7125Q178.34688 198.7125 179.44063 199.74374Q180.53438 200.775 180.53438 202.29062Q180.53438 203.16562 180.22188 203.9625Q179.90938 204.74374 179.2375 205.60312Q178.78438 206.18124 177.6125 207.25937Q176.44063 208.32187 176.12813 208.68124Q175.81563 209.025 175.62813 209.35312L180.53438 209.35312ZM186.3625 198.7125Q188.2375 198.7125 189.28438 200.04062Q190.55 201.63437 190.55 205.29062Q190.55 208.94687 189.28438 210.55624Q188.2375 211.86874 186.3625 211.86874Q184.4875 211.86874 183.33125 210.43124Q182.175 208.97812 182.175 205.275Q182.175 201.63437 183.44063 200.025Q184.4875 198.7125 186.3625 198.7125ZM186.3625 200.75937Q185.90938 200.75937 185.55 201.05624Q185.20625 201.3375 185.01875 202.07187Q184.76875 203.025 184.76875 205.29062Q184.76875 207.55624 184.9875 208.41562Q185.22188 209.25937 185.56563 209.54062Q185.90938 209.82187 186.3625 209.82187Q186.81563 209.82187 187.15938 209.54062Q187.51875 209.24374 187.70625 208.50937Q187.97188 207.55624 187.97188 205.29062Q187.97188 203.025 187.7375 202.18124Q187.50313 201.3375 187.15938 201.05624Q186.81563 200.75937 186.3625 200.75937ZM196.3625 198.7125Q198.2375 198.7125 199.28438 200.04062Q200.55 201.63437 200.55 205.29062Q200.55 208.94687 199.28438 210.55624Q198.2375 211.86874 196.3625 211.86874Q194.4875 211.86874 193.33125 210.43124Q192.175 208.97812 192.175 205.275Q192.175 201.63437 193.44063 200.025Q194.4875 198.7125 196.3625 198.7125ZM196.3625 200.75937Q195.90938 200.75937 195.55 201.05624Q195.20625 201.3375 195.01875 202.07187Q194.76875 203.025 194.76875 205.29062Q194.76875 207.55624 194.9875 208.41562Q195.22188 209.25937 195.56563 209.54062Q195.90938 209.82187 196.3625 209.82187Q196.81563 209.82187 197.15938 209.54062Q197.51875 209.24374 197.70625 208.50937Q197.97188 207.55624 197.97188 205.29062Q197.97188 203.025 197.7375 202.18124Q197.50313 201.3375 197.15938 201.05624Q196.81563 200.75937 196.3625 200.75937Z" fill-rule="nonzero"/><path fill="#ffffff" d="M311.10938 211.65L311.10938 209.05624L305.82812 209.05624L305.82812 206.9L311.42188 198.7125L313.5 198.7125L313.5 206.88437L315.09375 206.88437L315.09375 209.05624L313.5 209.05624L313.5 211.65L311.10938 211.65ZM311.10938 206.88437L311.10938 202.47812L308.14062 206.88437L311.10938 206.88437ZM320.4375 198.7125Q322.3125 198.7125 323.35938 200.04062Q324.625 201.63437 324.625 205.29062Q324.625 208.94687 323.35938 210.55624Q322.3125 211.86874 320.4375 211.86874Q318.5625 211.86874 317.40625 210.43124Q316.25 208.97812 316.25 205.275Q316.25 201.63437 317.51562 200.025Q318.5625 198.7125 320.4375 198.7125ZM320.4375 200.75937Q319.98438 200.75937 319.625 201.05624Q319.28125 201.3375 319.09375 202.07187Q318.84375 203.025 318.84375 205.29062Q318.84375 207.55624 319.0625 208.41562Q319.29688 209.25937 319.64062 209.54062Q319.98438 209.82187 320.4375 209.82187Q320.89062 209.82187 321.23438 209.54062Q321.59375 209.24374 321.78125 208.50937Q322.04688 207.55624 322.04688 205.29062Q322.04688 203.025 321.8125 202.18124Q321.57812 201.3375 321.23438 201.05624Q320.89062 200.75937 320.4375 200.75937ZM330.4375 198.7125Q332.3125 198.7125 333.35938 200.04062Q334.625 201.63437 334.625 205.29062Q334.625 208.94687 333.35938 210.55624Q332.3125 211.86874 330.4375 211.86874Q328.5625 211.86874 327.40625 210.43124Q326.25 208.97812 326.25 205.275Q326.25 201.63437 327.51562 200.025Q328.5625 198.7125 330.4375 198.7125ZM330.4375 200.75937Q329.98438 200.75937 329.625 201.05624Q329.28125 201.3375 329.09375 202.07187Q328.84375 203.025 328.84375 205.29062Q328.84375 207.55624 329.0625 208.41562Q329.29688 209.25937 329.64062 209.54062Q329.98438 209.82187 330.4375 209.82187Q330.89062 209.82187 331.23438 209.54062Q331.59375 209.24374 331.78125 208.50937Q332.04688 207.55624 332.04688 205.29062Q332.04688 203.025 331.8125 202.18124Q331.57812 201.3375 331.23438 201.05624Q330.89062 200.75937 330.4375 200.75937Z" fill-rule="nonzero"/><path fill="#ffffff" d="M448.7 201.91562L446.3094 202.18124Q446.23126 201.44687 445.85626 201.10312Q445.4969 200.74374 444.90314 200.74374Q444.1219 200.74374 443.575 201.44687Q443.04376 202.15 442.90314 204.36874Q443.825 203.275 445.1844 203.275Q446.73126 203.275 447.84064 204.4625Q448.95 205.63437 448.95 207.49374Q448.95 209.47812 447.77814 210.68124Q446.6219 211.86874 444.8094 211.86874Q442.85626 211.86874 441.59064 210.35312Q440.34064 208.8375 440.34064 205.38437Q440.34064 201.8375 441.65314 200.275Q442.96564 198.7125 445.04376 198.7125Q446.5125 198.7125 447.48126 199.54062Q448.45 200.35312 448.7 201.91562ZM443.10626 207.30624Q443.10626 208.50937 443.65314 209.16562Q444.21564 209.82187 444.9344 209.82187Q445.60626 209.82187 446.0594 209.29062Q446.52814 208.74374 446.52814 207.525Q446.52814 206.275 446.02814 205.69687Q445.54376 205.10312 444.8094 205.10312Q444.09064 205.10312 443.59064 205.66562Q443.10626 206.2125 443.10626 207.30624ZM454.5125 198.7125Q456.3875 198.7125 457.4344 200.04062Q458.7 201.63437 458.7 205.29062Q458.7 208.94687 457.4344 210.55624Q456.3875 211.86874 454.5125 211.86874Q452.6375 211.86874 451.48126 210.43124Q450.325 208.97812 450.325 205.275Q450.325 201.63437 451.59064 200.025Q452.6375 198.7125 454.5125 198.7125ZM454.5125 200.75937Q454.0594 200.75937 453.7 201.05624Q453.35626 201.3375 453.16876 202.07187Q452.91876 203.025 452.91876 205.29062Q452.91876 207.55624 453.1375 208.41562Q453.3719 209.25937 453.71564 209.54062Q454.0594 209.82187 454.5125 209.82187Q454.96564 209.82187 455.3094 209.54062Q455.66876 209.24374 455.85626 208.50937Q456.1219 207.55624 456.1219 205.29062Q456.1219 203.025 455.8875 202.18124Q455.65314 201.3375 455.3094 201.05624Q454.96564 200.75937 454.5125 200.75937ZM464.5125 198.7125Q466.3875 198.7125 467.4344 200.04062Q468.7 201.63437 468.7 205.29062Q468.7 208.94687 467.4344 210.55624Q466.3875 211.86874 464.5125 211.86874Q462.6375 211.86874 461.48126 210.43124Q460.325 208.97812 460.325 205.275Q460.325 201.63437 461.59064 200.025Q462.6375 198.7125 464.5125 198.7125ZM464.5125 200.75937Q464.0594 200.75937 463.7 201.05624Q463.35626 201.3375 463.16876 202.07187Q462.91876 203.025 462.91876 205.29062Q462.91876 207.55624 463.1375 208.41562Q463.3719 209.25937 463.71564 209.54062Q464.0594 209.82187 464.5125 209.82187Q464.96564 209.82187 465.3094 209.54062Q465.66876 209.24374 465.85626 208.50937Q466.1219 207.55624 466.1219 205.29062Q466.1219 203.025 465.8875 202.18124Q465.65314 201.3375 465.3094 201.05624Q464.96564 200.75937 464.5125 200.75937Z" fill-rule="nonzero"/></svg>